<svg width="184" height="86" viewBox="0 0 184 86" fill="none" xmlns="http://www.w3.org/2000/svg">
<path d="M92.77 22V12L2 2V83.91L92.77 73.91V63.91" stroke="#B91C1B" stroke-width="3"/>
<path d="M24.49 60.91C20.4233 60.91 17.25 59.0067 14.97 55.2C12.99 51.9333 12 48.1 12 43.7C12 39.2267 13.12 35.45 15.36 32.37C17.8867 28.9233 21.2967 27.2 25.59 27.2C29.99 27.2 33.3833 29.07 35.77 32.81C37.7833 35.9967 38.79 39.9933 38.79 44.8C38.79 49.0533 37.5067 52.74 34.94 55.86C32.1933 59.2267 28.71 60.91 24.49 60.91ZM25.59 51.01C26.5033 51.01 27.2367 50.6367 27.79 49.89C28.3433 49.1367 28.71 48.3033 28.89 47.39V44.09C28.89 41.89 28.7233 40.2733 28.39 39.24C27.77 37.3333 26.5967 36.38 24.87 36.38C23.5567 36.38 22.5867 37.0233 21.96 38.31C21.4467 39.2967 21.19 40.4867 21.19 41.88C21.19 43.9 21.4667 45.7367 22.02 47.39C22.8267 49.8033 24.0167 51.01 25.59 51.01ZM59.86 60.2C59.2333 60.2 58.6367 60.0433 58.07 59.73C57.5033 59.4167 56.9433 59.0867 56.39 58.74C55.8367 58.3933 55.2767 58.0633 54.71 57.75C54.1433 57.4367 53.5467 57.28 52.92 57.28C52.1933 57.28 51.5533 57.4367 51 57.75C50.4467 58.0633 49.9067 58.3933 49.38 58.74C48.8467 59.0867 48.2867 59.4167 47.7 59.73C47.1133 60.0433 46.3967 60.2 45.55 60.2H43.74C43.1933 60.0133 42.8 59.74 42.56 59.38C42.32 59.0067 42.11 58.5467 41.93 58C41.67 54.1533 41.54 46.5833 41.54 35.29C41.36 34.7367 41.25 34.24 41.21 33.8C41.1767 33.36 41.16 32.3867 41.16 30.88C42.2933 29.4133 44.42 28.4433 47.54 27.97C49.3333 27.71 51.7333 27.58 54.74 27.58C58.08 27.58 60.83 28.28 62.99 29.68C65.5567 31.3267 66.84 33.6733 66.84 36.72C66.84 38.18 66.5733 39.5267 66.04 40.76C65.5133 41.9867 64.9267 43.14 64.28 44.22C63.64 45.3 63.0533 46.3367 62.52 47.33C61.9933 48.3233 61.73 49.3133 61.73 50.3C61.73 51.0333 62.0967 51.94 62.83 53.02C63.5567 54.1067 63.92 55.0333 63.92 55.8C63.92 56.94 63.51 57.9567 62.69 58.85C61.8633 59.75 60.92 60.2 59.86 60.2ZM52.92 42.99C53.7667 42.99 54.53 42.5667 55.21 41.72C55.89 40.8733 56.23 39.9367 56.23 38.91C56.23 37.7033 55.4967 37.1 54.03 37.1C53.4767 37.1 53.0333 37.1933 52.7 37.38C52.0467 37.82 51.6633 38.44 51.55 39.24C51.4767 39.6467 51.44 40.64 51.44 42.22C51.6267 42.62 51.82 42.8467 52.02 42.9C52.22 42.96 52.52 42.99 52.92 42.99ZM79.05 60.91C74.9767 60.91 71.8067 59.0067 69.54 55.2C67.56 51.9333 66.57 48.1 66.57 43.7C66.57 39.2267 67.6867 35.45 69.92 32.37C72.4533 28.9233 75.8633 27.2 80.15 27.2C84.55 27.2 87.9433 29.07 90.33 32.81C92.3433 35.9967 93.35 39.9933 93.35 44.8C93.35 49.0533 92.0667 52.74 89.5 55.86C86.7467 59.2267 83.2633 60.91 79.05 60.91ZM80.15 51.01C81.07 51.01 81.8033 50.6367 82.35 49.89C82.8967 49.1367 83.2633 48.3033 83.45 47.39V44.09C83.45 41.89 83.2833 40.2733 82.95 39.24C82.33 37.3333 81.16 36.38 79.44 36.38C78.1133 36.38 77.14 37.0233 76.52 38.31C76.0067 39.2967 75.75 40.4867 75.75 41.88C75.75 43.9 76.0267 45.7367 76.58 47.39C77.3867 49.8033 78.5767 51.01 80.15 51.01ZM99.4 60.2C98.4133 60.2 97.6067 59.9067 96.98 59.32C95.8067 58.2933 95.09 56.68 94.83 54.48C94.6833 53.4867 94.61 45.1267 94.61 29.4C94.61 26.6533 98.4433 25.28 106.11 25.28C107.17 25.28 108.113 25.2967 108.94 25.33C109.767 25.37 110.38 25.39 110.78 25.39H112.98C115.18 26.1167 116.28 27.69 116.28 30.11C116.28 32.2767 115.31 33.7467 113.37 34.52C112.123 35.0333 110.217 35.29 107.65 35.29C105.343 35.29 104.19 36.13 104.19 37.81C104.19 38.4367 104.39 38.86 104.79 39.08C105.337 39.4067 106.473 39.68 108.2 39.9C110.88 40.2667 112.22 41.9 112.22 44.8C112.22 46.5933 110.933 47.9133 108.36 48.76C107.7 48.98 107.097 49.22 106.55 49.48C105.197 50.14 104.52 51.0167 104.52 52.11V57.28C104.52 58.2333 103.857 58.9867 102.53 59.54C101.543 59.98 100.5 60.2 99.4 60.2ZM128.16 59.49C124.313 59.49 121.29 58.13 119.09 55.41C117.07 52.99 116.06 49.82 116.06 45.9C116.06 39.34 116.74 34.3167 118.1 30.83C119.127 28.1567 120.52 26.82 122.28 26.82C123.78 26.82 125.017 27.3033 125.99 28.27C126.963 29.2433 127.45 30.4833 127.45 31.99C127.45 34.0033 127.32 36.01 127.06 38.01C126.807 40.0033 126.68 42.03 126.68 44.09C126.68 45.63 126.807 46.82 127.06 47.66C127.5 49.16 128.363 49.91 129.65 49.91C130.197 49.91 130.757 49.7933 131.33 49.56C131.897 49.32 132.547 49.2 133.28 49.2C134.34 49.2 135.403 49.7033 136.47 50.71C137.53 51.7233 138.06 52.6867 138.06 53.6C138.06 55.54 136.777 57.06 134.21 58.16C132.197 59.0467 130.18 59.49 128.16 59.49ZM143.67 60.59C141.583 60.59 140.12 59.6 139.28 57.62V53.6C139.28 50.8533 139.307 48.04 139.36 45.16C139.413 42.28 139.643 39.4667 140.05 36.72C140.123 36.28 140.47 35.4167 141.09 34.13C141.603 33.03 141.86 32.1133 141.86 31.38C141.86 31.12 141.74 30.6333 141.5 29.92C141.26 29.2067 141.14 28.7933 141.14 28.68C141.14 27.62 141.59 26.74 142.49 26.04C143.39 25.3467 144.41 25 145.55 25C146.39 25 147.15 25.2833 147.83 25.85C148.51 26.4233 148.85 27.24 148.85 28.3C148.85 28.8533 148.667 29.42 148.3 30C147.927 30.5867 147.74 31.25 147.74 31.99C147.74 32.7233 147.927 33.3733 148.3 33.94C148.667 34.5067 148.85 35.0633 148.85 35.61V54.32C148.85 56.0733 148.407 57.52 147.52 58.66C146.533 59.9467 145.25 60.59 143.67 60.59ZM168.76 59.49C167.953 59.49 167.263 59.24 166.69 58.74C166.123 58.2467 165.603 57.6967 165.13 57.09C164.65 56.49 164.163 55.94 163.67 55.44C163.177 54.9467 162.563 54.7 161.83 54.7C161.17 54.7 160.6 54.8733 160.12 55.22C159.647 55.5667 159.17 55.9433 158.69 56.35C158.217 56.75 157.74 57.1267 157.26 57.48C156.787 57.8267 156.22 58 155.56 58C154.313 58 153.213 57.5233 152.26 56.57C151.307 55.6167 150.83 54.4967 150.83 53.21C150.83 52.2967 151.057 51.4633 151.51 50.71C151.97 49.9567 152.477 49.2167 153.03 48.49C153.577 47.7567 154.08 47.0033 154.54 46.23C155 45.4567 155.23 44.6133 155.23 43.7C155.23 42.7133 154.733 41.43 153.74 39.85C152.753 38.2767 152.26 36.9933 152.26 36C152.26 34.9 152.717 33.8267 153.63 32.78C154.55 31.74 155.56 31.22 156.66 31.22C157.247 31.22 158.053 31.53 159.08 32.15C160.107 32.7767 160.893 33.09 161.44 33.09C162.173 33.09 162.77 32.84 163.23 32.34C163.69 31.8467 164.14 31.2967 164.58 30.69C165.013 30.09 165.497 29.54 166.03 29.04C166.563 28.5467 167.233 28.3 168.04 28.3C169.327 28.3 170.447 28.7133 171.4 29.54C172.353 30.36 172.83 31.4133 172.83 32.7C172.83 33.6867 172.617 34.63 172.19 35.53C171.77 36.43 171.303 37.32 170.79 38.2C170.277 39.08 169.81 39.97 169.39 40.87C168.97 41.77 168.76 42.7133 168.76 43.7C168.76 45.5667 169.803 47.9867 171.89 50.96L173.16 52.88C173.16 53.0667 173.223 53.3067 173.35 53.6C173.477 53.8933 173.54 54.1333 173.54 54.32C173.54 55.5667 173.053 56.7367 172.08 57.83C171.113 58.9367 170.007 59.49 168.76 59.49Z" fill="#B91C1B"/>
</svg>
